<?xml version="1.0" standalone="no"?>
<!DOCTYPE svg PUBLIC "-//W3C//DTD SVG 20010904//EN"
 "http://www.w3.org/TR/2001/REC-SVG-20010904/DTD/svg10.dtd">
<svg version="1.0" xmlns="http://www.w3.org/2000/svg"
 width="226.000000pt" height="226.000000pt" viewBox="0 0 226.000000 226.000000"
 preserveAspectRatio="xMidYMid meet">
<metadata>
Created by potrace 1.11, written by Peter Selinger 2001-2013
</metadata>
<g transform="translate(0.000000,226.000000) scale(0.100000,-0.100000)"
fill="#000000" stroke="none">
<path d="M549 1663 c-1 -27 -1 -52 0 -57 1 -4 -1 -16 -4 -27 -5 -15 -18 -19
-78 -21 l-72 -3 0 -75 0 -75 70 -3 c40 -2 73 -8 77 -15 4 -7 8 -40 8 -73 0
-69 5 -74 68 -74 77 0 82 5 82 75 0 39 5 67 13 73 7 6 42 12 77 14 l65 3 3 54
c6 97 2 101 -77 101 -80 0 -81 2 -81 91 l0 59 -75 0 -75 0 -1 -47z"/>
<path d="M1290 1310 l0 -330 -642 -2 -643 -3 -3 -211 -2 -210 26 -25 c22 -21
36 -24 97 -25 l72 -1 7 -41 c28 -164 219 -244 359 -149 45 30 88 93 97 143 l7
42 468 6 467 5 0 -27 c0 -34 34 -110 63 -140 31 -33 89 -61 142 -69 119 -16
236 74 259 200 l7 37 70 0 c61 0 73 3 94 25 l25 24 0 315 0 315 -24 27 c-22
27 -28 28 -138 32 l-115 4 -42 54 -41 53 -171 3 c-216 4 -209 -2 -209 164 l0
114 -115 0 -115 0 0 -330z"/>
</g>
</svg>
